<svg width="35" height="35" viewBox="0 0 35 35" fill="none" xmlns="http://www.w3.org/2000/svg">
<path d="M16.0416 2.91663C13.1573 2.91663 10.3377 3.77192 7.93953 5.37436C5.54131 6.9768 3.67213 9.2544 2.56835 11.9192C1.46457 14.5839 1.17577 17.5161 1.73847 20.345C2.30117 23.1739 3.6901 25.7724 5.72962 27.8119C7.76913 29.8515 10.3676 31.2404 13.1965 31.8031C16.0254 32.3658 18.9576 32.077 21.6224 30.9732C24.2871 29.8694 26.5648 28.0002 28.1672 25.602C29.7696 23.2038 30.6249 20.3843 30.6249 17.5C30.6249 15.5849 30.2477 13.6885 29.5148 11.9192C28.782 10.1498 27.7078 8.54217 26.3536 7.18799C24.9994 5.8338 23.3917 4.7596 21.6224 4.02672C19.8531 3.29384 17.9567 2.91663 16.0416 2.91663ZM16.0416 29.1666C13.7341 29.1666 11.4785 28.4824 9.55994 27.2004C7.64137 25.9185 6.14602 24.0964 5.263 21.9646C4.37998 19.8328 4.14894 17.487 4.5991 15.2239C5.04926 12.9608 6.1604 10.882 7.79201 9.25038C9.42363 7.61877 11.5024 6.50763 13.7655 6.05747C16.0287 5.6073 18.3744 5.83834 20.5062 6.72137C22.638 7.60439 24.4601 9.09973 25.7421 11.0183C27.024 12.9369 27.7083 15.1925 27.7083 17.5C27.7083 20.5942 26.4791 23.5616 24.2912 25.7495C22.1032 27.9375 19.1358 29.1666 16.0416 29.1666ZM16.0416 8.74996C15.6548 8.74996 15.2839 8.90361 15.0104 9.1771C14.7369 9.45059 14.5833 9.82152 14.5833 10.2083V16.6541L11.5208 18.4187C11.2398 18.5779 11.0197 18.8258 10.8948 19.1236C10.77 19.4214 10.7475 19.7522 10.8309 20.0642C10.9143 20.3761 11.0989 20.6516 11.3557 20.8473C11.6125 21.0431 11.927 21.1481 12.2499 21.1458C12.5054 21.1476 12.7568 21.0822 12.9791 20.9562L16.7708 18.7687L16.902 18.6375L17.1353 18.4479C17.1924 18.3757 17.2413 18.2974 17.2812 18.2145C17.3287 18.1363 17.3678 18.0532 17.3978 17.9666C17.4375 17.8739 17.4621 17.7754 17.4708 17.675L17.4999 17.5V10.2083C17.4999 9.82152 17.3463 9.45059 17.0728 9.1771C16.7993 8.90361 16.4284 8.74996 16.0416 8.74996Z" fill="#000C37"/>
</svg>
