<svg width="24" height="24" viewBox="0 0 24 24" fill="none" xmlns="http://www.w3.org/2000/svg">
<path d="M13.92 14.28C13.785 14.2814 13.652 14.2467 13.5348 14.1797C13.4176 14.1126 13.3203 14.0155 13.2531 13.8983C13.1859 13.7812 13.1511 13.6483 13.1523 13.5132C13.1535 13.3782 13.1907 13.2459 13.26 13.13V13.13L13.83 12.13C13.8397 12.1134 13.8536 12.0996 13.8702 12.0901C13.8869 12.0805 13.9058 12.0755 13.925 12.0755C13.9442 12.0755 13.9631 12.0805 13.9798 12.0901C13.9964 12.0996 14.0103 12.1134 14.02 12.13L14.59 13.13C14.6565 13.2472 14.6911 13.3797 14.6903 13.5144C14.6895 13.6491 14.6534 13.7812 14.5856 13.8976C14.5178 14.014 14.4207 14.1106 14.3039 14.1777C14.1871 14.2448 14.0547 14.2801 13.92 14.28Z" stroke="#151E28" stroke-width="0.75" stroke-linecap="round" stroke-linejoin="round"/>
<path d="M14.25 19.23C14.0424 19.2214 13.8405 19.1595 13.6638 19.0502C13.4871 18.941 13.3415 18.788 13.241 18.6062C13.1406 18.4243 13.0886 18.2197 13.0902 18.0119C13.0917 17.8042 13.1468 17.6003 13.25 17.42V17.42L14.15 15.87C14.1652 15.8452 14.1865 15.8247 14.2119 15.8104C14.2373 15.7962 14.2659 15.7887 14.295 15.7887C14.3241 15.7887 14.3527 15.7962 14.3781 15.8104C14.4035 15.8247 14.4248 15.8452 14.44 15.87L15.34 17.42C15.445 17.604 15.4999 17.8123 15.4992 18.0241C15.4985 18.236 15.4422 18.4439 15.3359 18.6272C15.2296 18.8104 15.077 18.9625 14.8935 19.0683C14.7099 19.1741 14.5018 19.2299 14.29 19.23H14.25Z" stroke="#151E28" stroke-width="0.75" stroke-linecap="round" stroke-linejoin="round"/>
<path d="M11.47 17.1C11.3047 17.0897 11.1445 17.0385 11.0038 16.951C10.8632 16.8635 10.7465 16.7425 10.6642 16.5987C10.5819 16.4549 10.5366 16.293 10.5324 16.1274C10.5281 15.9618 10.5651 15.7978 10.64 15.65V15.65L11.35 14.41C11.3624 14.3893 11.38 14.3722 11.4011 14.3603C11.4221 14.3484 11.4458 14.3421 11.47 14.3421C11.4941 14.3421 11.5179 14.3484 11.5389 14.3603C11.56 14.3722 11.5775 14.3893 11.59 14.41L12.3 15.65C12.3748 15.7978 12.4118 15.9618 12.4076 16.1274C12.4034 16.293 12.3581 16.4549 12.2758 16.5987C12.1935 16.7425 12.0768 16.8635 11.9362 16.951C11.7955 17.0385 11.6353 17.0897 11.47 17.1V17.1Z" stroke="#151E28" stroke-width="0.75" stroke-linecap="round" stroke-linejoin="round"/>
<path d="M16.85 16.32C17.6594 16.1455 18.3671 15.6583 18.8191 14.9645C19.2711 14.2707 19.4307 13.4264 19.2633 12.6155C19.0958 11.8046 18.6148 11.0926 17.925 10.6346C17.2351 10.1766 16.3923 10.0096 15.58 10.17" stroke="#151E28" stroke-width="1.2" stroke-linecap="round" stroke-linejoin="round"/>
<path d="M7.99998 16.26C7.11525 16.4297 6.19913 16.2958 5.39998 15.88C4.84166 15.5762 4.37811 15.1241 4.06048 14.5736C3.74285 14.023 3.58349 13.3954 3.59998 12.76C3.59998 11.7973 3.98242 10.874 4.66318 10.1932C5.34394 9.51245 6.26724 9.13 7.22998 9.13H7.74998C7.94573 8.45679 8.31499 7.84685 8.82075 7.36132C9.32651 6.87578 9.951 6.53171 10.6316 6.36357C11.3123 6.19544 12.0251 6.20916 12.6988 6.40334C13.3725 6.59753 13.9833 6.96537 14.47 7.47C14.7001 7.70173 14.9015 7.96025 15.07 8.24" stroke="#151E28" stroke-width="1.2" stroke-linecap="round" stroke-linejoin="round"/>
</svg>
