<svg width="24" height="24" viewBox="0 0 24 24" fill="none" xmlns="http://www.w3.org/2000/svg">
<path d="M10.31 14.95C10.6856 14.95 10.99 14.6456 10.99 14.27C10.99 13.8944 10.6856 13.59 10.31 13.59C9.93445 13.59 9.63 13.8944 9.63 14.27C9.63 14.6456 9.93445 14.95 10.31 14.95Z" stroke="#151E28" stroke-width="0.6" stroke-linecap="round" stroke-linejoin="round"/>
<path d="M12.86 17.27C13.2355 17.27 13.54 16.9656 13.54 16.59C13.54 16.2144 13.2355 15.91 12.86 15.91C12.4844 15.91 12.18 16.2144 12.18 16.59C12.18 16.9656 12.4844 17.27 12.86 17.27Z" stroke="#151E28" stroke-width="0.6" stroke-linecap="round" stroke-linejoin="round"/>
<path d="M17.33 14.67C17.5509 14.67 17.73 14.4909 17.73 14.27C17.73 14.0491 17.5509 13.87 17.33 13.87C17.1091 13.87 16.93 14.0491 16.93 14.27C16.93 14.4909 17.1091 14.67 17.33 14.67Z" fill="#151E28"/>
<path d="M15.07 17.19C15.2909 17.19 15.47 17.0109 15.47 16.79C15.47 16.5691 15.2909 16.39 15.07 16.39C14.8491 16.39 14.67 16.5691 14.67 16.79C14.67 17.0109 14.8491 17.19 15.07 17.19Z" fill="#151E28"/>
<path d="M12.8 19.18C13.0209 19.18 13.2 19.0009 13.2 18.78C13.2 18.5591 13.0209 18.38 12.8 18.38C12.5791 18.38 12.4 18.5591 12.4 18.78C12.4 19.0009 12.5791 19.18 12.8 19.18Z" fill="#151E28"/>
<path d="M10.25 17.19C10.4709 17.19 10.65 17.0109 10.65 16.79C10.65 16.5691 10.4709 16.39 10.25 16.39C10.0291 16.39 9.84998 16.5691 9.84998 16.79C9.84998 17.0109 10.0291 17.19 10.25 17.19Z" fill="#151E28"/>
<path d="M12.52 14.67C12.7409 14.67 12.92 14.4909 12.92 14.27C12.92 14.0491 12.7409 13.87 12.52 13.87C12.2991 13.87 12.12 14.0491 12.12 14.27C12.12 14.4909 12.2991 14.67 12.52 14.67Z" fill="#151E28"/>
<path d="M7.98997 14.67C8.21088 14.67 8.38997 14.4909 8.38997 14.27C8.38997 14.0491 8.21088 13.87 7.98997 13.87C7.76905 13.87 7.58997 14.0491 7.58997 14.27C7.58997 14.4909 7.76905 14.67 7.98997 14.67Z" fill="#151E28"/>
<path d="M15.01 14.95C15.3855 14.95 15.69 14.6456 15.69 14.27C15.69 13.8944 15.3855 13.59 15.01 13.59C14.6344 13.59 14.33 13.8944 14.33 14.27C14.33 14.6456 14.6344 14.95 15.01 14.95Z" stroke="#151E28" stroke-width="0.6" stroke-linecap="round" stroke-linejoin="round"/>
<path d="M16.86 16.32C17.5092 16.1541 18.0886 15.7855 18.514 15.2678C18.9394 14.75 19.1887 14.1101 19.2255 13.441C19.2623 12.7719 19.0847 12.1086 18.7187 11.5473C18.3526 10.986 17.8171 10.5561 17.19 10.32C16.6752 10.1461 16.1249 10.1048 15.59 10.2" stroke="#151E28" stroke-width="1.17" stroke-linecap="round" stroke-linejoin="round"/>
<path d="M7.99999 16.27C7.11413 16.4367 6.19795 16.2992 5.39999 15.88C4.83905 15.5785 4.37284 15.1271 4.05326 14.5763C3.73369 14.0254 3.57331 13.3966 3.58999 12.76C3.58867 12.2825 3.68159 11.8094 3.86343 11.3678C4.04526 10.9262 4.31244 10.5249 4.64965 10.1867C4.98685 9.8486 5.38747 9.58032 5.82853 9.39727C6.2696 9.21422 6.74244 9.12 7.21999 9.12H7.73999C7.95204 8.35719 8.38569 7.67447 8.98603 7.1583C9.58637 6.64213 10.3264 6.31572 11.1124 6.22042C11.8983 6.12512 12.6949 6.26521 13.4012 6.62294C14.1075 6.98068 14.6918 7.53998 15.08 8.23" stroke="#151E28" stroke-width="1.17" stroke-linecap="round" stroke-linejoin="round"/>
</svg>
