<svg width="24" height="24" viewBox="0 0 24 24" fill="none" xmlns="http://www.w3.org/2000/svg">
<path d="M14.63 8.76C14.3124 8.76123 14.0002 8.67844 13.725 8.52003C13.4498 8.36161 13.2214 8.13322 13.063 7.85802C12.9046 7.58282 12.8218 7.27061 12.823 6.95307C12.8242 6.63553 12.9094 6.32397 13.07 6.05V6.05L14.41 3.73C14.4314 3.69031 14.4632 3.65716 14.5019 3.63405C14.5406 3.61094 14.5849 3.59874 14.63 3.59874C14.6751 3.59874 14.7193 3.61094 14.7581 3.63405C14.7968 3.65716 14.8286 3.69031 14.85 3.73L16.19 6.05C16.3505 6.32397 16.4357 6.63553 16.4369 6.95307C16.4382 7.27061 16.3554 7.58282 16.197 7.85802C16.0385 8.13322 15.8101 8.36161 15.5349 8.52003C15.2597 8.67844 14.9475 8.76123 14.63 8.76V8.76Z" stroke="#151E28" stroke-width="1.21" stroke-linecap="round" stroke-linejoin="round"/>
<path d="M15.42 20.39C14.9251 20.3851 14.4401 20.2506 14.0135 19.9997C13.5869 19.7489 13.2335 19.3905 12.9886 18.9605C12.7437 18.5304 12.6159 18.0436 12.6179 17.5487C12.6199 17.0538 12.7516 16.5681 13 16.14V16.14L15.07 12.5C15.1046 12.4375 15.1553 12.3854 15.2168 12.3491C15.2784 12.3128 15.3485 12.2936 15.42 12.2936C15.4914 12.2936 15.5616 12.3128 15.6231 12.3491C15.6847 12.3854 15.7354 12.4375 15.77 12.5L17.87 16.14C18.1196 16.5703 18.2513 17.0587 18.252 17.5562C18.2527 18.0536 18.1222 18.5424 17.8738 18.9734C17.6254 19.4043 17.2677 19.7622 16.8369 20.0109C16.4062 20.2596 15.9174 20.3904 15.42 20.39V20.39Z" stroke="#151E28" stroke-width="1.21" stroke-linecap="round" stroke-linejoin="round"/>
<path d="M8.86997 15.37C8.47594 15.3685 8.08915 15.264 7.74797 15.0669C7.40679 14.8698 7.12308 14.5869 6.92498 14.2462C6.72688 13.9056 6.62127 13.5191 6.61864 13.1251C6.61601 12.7311 6.71644 12.3432 6.90997 12V12L8.58997 9.07C8.61764 9.01999 8.65821 8.9783 8.70745 8.94927C8.75669 8.92023 8.81281 8.90492 8.86997 8.90492C8.92713 8.90492 8.98325 8.92023 9.03249 8.94927C9.08173 8.9783 9.1223 9.01999 9.14997 9.07L10.83 12C11.0302 12.3467 11.1348 12.7404 11.133 13.1408C11.1311 13.5412 11.0229 13.9339 10.8195 14.2788C10.616 14.6236 10.3246 14.9083 9.97504 15.1035C9.62547 15.2988 9.2303 15.3976 8.82997 15.39L8.86997 15.37Z" stroke="#151E28" stroke-width="1.21" stroke-linecap="round" stroke-linejoin="round"/>
</svg>
