<svg width="24" height="24" viewBox="0 0 24 24" fill="none" xmlns="http://www.w3.org/2000/svg">
<path d="M12.4301 4.7V11.82" stroke="#151E28" stroke-width="1.18" stroke-linecap="round" stroke-linejoin="round"/>
<path d="M14.45 5.59L12.43 7.62L10.4 5.59" stroke="#151E28" stroke-width="1.18" stroke-linecap="round" stroke-linejoin="round"/>
<path d="M13.55 3.59L12.43 4.72L11.3 3.59" stroke="#151E28" stroke-width="1.18" stroke-linecap="round" stroke-linejoin="round"/>
<path d="M6.12006 8.37L12.2801 11.93" stroke="#151E28" stroke-width="1.18" stroke-linecap="round" stroke-linejoin="round"/>
<path d="M7.9 7.06L8.64 9.83L5.88 10.57" stroke="#151E28" stroke-width="1.18" stroke-linecap="round" stroke-linejoin="round"/>
<path d="M5.72003 6.84L6.13003 8.38L4.59003 8.79" stroke="#151E28" stroke-width="1.18" stroke-linecap="round" stroke-linejoin="round"/>
<path d="M6.14008 15.67L12.3101 12.11" stroke="#151E28" stroke-width="1.18" stroke-linecap="round" stroke-linejoin="round"/>
<path d="M5.90002 13.47L8.67002 14.21L7.92002 16.98" stroke="#151E28" stroke-width="1.18" stroke-linecap="round" stroke-linejoin="round"/>
<path d="M4.61005 15.25L6.16005 15.66L5.75005 17.2" stroke="#151E28" stroke-width="1.18" stroke-linecap="round" stroke-linejoin="round"/>
<path d="M12.48 19.3V12.18" stroke="#151E28" stroke-width="1.18" stroke-linecap="round" stroke-linejoin="round"/>
<path d="M10.45 18.41L12.47 16.38L14.5 18.41" stroke="#151E28" stroke-width="1.18" stroke-linecap="round" stroke-linejoin="round"/>
<path d="M11.35 20.41L12.47 19.28L13.61 20.41" stroke="#151E28" stroke-width="1.18" stroke-linecap="round" stroke-linejoin="round"/>
<path d="M18.7801 15.63L12.6201 12.07" stroke="#151E28" stroke-width="1.18" stroke-linecap="round" stroke-linejoin="round"/>
<path d="M17.0001 16.94L16.2601 14.17L19.0301 13.43" stroke="#151E28" stroke-width="1.18" stroke-linecap="round" stroke-linejoin="round"/>
<path d="M19.1801 17.16L18.7701 15.62L20.3101 15.21" stroke="#151E28" stroke-width="1.18" stroke-linecap="round" stroke-linejoin="round"/>
<path d="M18.76 8.33L12.59 11.89" stroke="#151E28" stroke-width="1.18" stroke-linecap="round" stroke-linejoin="round"/>
<path d="M19 10.53L16.23 9.79L16.98 7.02" stroke="#151E28" stroke-width="1.18" stroke-linecap="round" stroke-linejoin="round"/>
<path d="M20.2901 8.75L18.7401 8.34L19.1601 6.8" stroke="#151E28" stroke-width="1.18" stroke-linecap="round" stroke-linejoin="round"/>
</svg>
