<svg width="24" height="24" viewBox="0 0 24 24" fill="none" xmlns="http://www.w3.org/2000/svg">
<path d="M16.86 16.33C17.6695 16.1555 18.3772 15.6683 18.8292 14.9745C19.2812 14.2807 19.4408 13.4364 19.2733 12.6255C19.1059 11.8146 18.6249 11.1026 17.935 10.6446C17.2452 10.1866 16.4024 10.0196 15.59 10.18" stroke="#151E28" stroke-width="1.2" stroke-linecap="round" stroke-linejoin="round"/>
<path d="M8.00002 16.27C7.11426 16.4415 6.19647 16.3038 5.40002 15.88C4.83867 15.5798 4.37256 15.1285 4.05445 14.5771C3.73634 14.0257 3.57892 13.3962 3.60002 12.76C3.60266 11.7981 3.98595 10.8763 4.66614 10.1961C5.34632 9.51593 6.26809 9.13264 7.23002 9.13H7.75002C7.95969 8.46632 8.33645 7.86769 8.84414 7.39158C9.35182 6.91547 9.97338 6.57787 10.6491 6.41119C11.3249 6.24451 12.0321 6.25435 12.703 6.43977C13.3739 6.62518 13.9858 6.97995 14.48 7.47C14.7101 7.70173 14.9116 7.96024 15.08 8.24" stroke="#151E28" stroke-width="1.2" stroke-linecap="round" stroke-linejoin="round"/>
<path d="M11.8 16.58H10.48C10.4372 16.5798 10.3954 16.5672 10.3597 16.5436C10.324 16.52 10.296 16.4866 10.279 16.4473C10.262 16.4081 10.2569 16.3647 10.2641 16.3226C10.2714 16.2804 10.2908 16.2413 10.32 16.21L13.32 12.89C13.3542 12.8529 13.4001 12.8287 13.45 12.8215C13.4999 12.8142 13.5508 12.8243 13.5941 12.8501C13.6375 12.8758 13.6707 12.9157 13.6881 12.963C13.7056 13.0104 13.7062 13.0622 13.69 13.11L12.8 15.61" stroke="#151E28" stroke-width="0.75" stroke-linecap="round" stroke-linejoin="round"/>
<path d="M12.85 15.71H14.17C14.2136 15.7082 14.2568 15.7194 14.294 15.7421C14.3313 15.7649 14.3609 15.7983 14.3791 15.838C14.3974 15.8776 14.4034 15.9218 14.3964 15.9649C14.3894 16.008 14.3698 16.0481 14.34 16.08L11.34 19.4C11.3028 19.4268 11.2582 19.4414 11.2123 19.4417C11.1665 19.4419 11.1217 19.4278 11.0843 19.4014C11.0468 19.375 11.0186 19.3375 11.0035 19.2942C10.9883 19.2509 10.9871 19.204 11 19.16L11.88 16.67" stroke="#151E28" stroke-width="0.75" stroke-linecap="round" stroke-linejoin="round"/>
</svg>
