<svg width="245" height="24" viewBox="0 0 245 24" fill="none" xmlns="http://www.w3.org/2000/svg">
<path d="M23.5 9.70998C23.5495 8.27864 23.2365 6.858 22.59 5.57998C22.1514 5.05558 21.5427 4.70169 20.87 4.57998C18.0875 4.32751 15.2936 4.22403 12.5 4.26998C9.71667 4.22194 6.93274 4.32208 4.16003 4.56998C3.61185 4.6697 3.10454 4.92683 2.70003 5.30998C1.80003 6.13998 1.70003 7.55998 1.60003 8.75998C1.45494 10.9175 1.45494 13.0824 1.60003 15.24C1.62896 15.9154 1.72952 16.5858 1.90003 17.24C2.0206 17.745 2.26455 18.2123 2.61003 18.6C3.01729 19.0034 3.53641 19.2752 4.10003 19.38C6.25594 19.6461 8.42824 19.7564 10.6 19.71C14.1 19.76 17.17 19.71 20.8 19.43C21.3775 19.3316 21.9112 19.0595 22.33 18.65C22.61 18.3699 22.8191 18.0271 22.94 17.65C23.2977 16.5526 23.4733 15.4041 23.46 14.25C23.5 13.69 23.5 10.31 23.5 9.70998ZM10.24 14.85V8.65998L16.16 11.77C14.5 12.69 12.31 13.73 10.24 14.85Z" fill="black"/>
<path d="M65.4 2H47.6C47.3083 2 47.0285 2.11589 46.8222 2.32218C46.6159 2.52847 46.5 2.80826 46.5 3.1V20.9C46.5 21.0445 46.5285 21.1875 46.5837 21.321C46.639 21.4544 46.72 21.5757 46.8222 21.6778C46.9243 21.78 47.0456 21.861 47.179 21.9163C47.3125 21.9715 47.4555 22 47.6 22H57.18V14.25H54.58V11.25H57.18V9C57.1261 8.47176 57.1885 7.93813 57.3627 7.43654C57.5369 6.93495 57.8188 6.47755 58.1885 6.09641C58.5582 5.71528 59.0068 5.41964 59.5028 5.23024C59.9989 5.04083 60.5304 4.96225 61.06 5C61.8383 4.99521 62.6163 5.03528 63.39 5.12V7.82H61.8C60.54 7.82 60.3 8.42 60.3 9.29V11.22H63.3L62.91 14.22H60.3V22H65.4C65.5445 22 65.6875 21.9715 65.821 21.9163C65.9544 21.861 66.0757 21.78 66.1778 21.6778C66.28 21.5757 66.361 21.4544 66.4163 21.321C66.4715 21.1875 66.5 21.0445 66.5 20.9V3.1C66.5 2.95555 66.4715 2.81251 66.4163 2.67905C66.361 2.54559 66.28 2.42433 66.1778 2.32218C66.0757 2.22004 65.9544 2.13901 65.821 2.08373C65.6875 2.02845 65.5445 2 65.4 2Z" fill="black"/>
<path d="M105.5 2H95.5C92.7386 2 90.5 4.23858 90.5 7V17C90.5 19.7614 92.7386 22 95.5 22H105.5C108.261 22 110.5 19.7614 110.5 17V7C110.5 4.23858 108.261 2 105.5 2Z" stroke="black" stroke-width="2" stroke-linecap="round" stroke-linejoin="round"/>
<path d="M104.5 11.3701C104.623 12.2023 104.481 13.0523 104.094 13.7991C103.706 14.5459 103.093 15.1515 102.342 15.5297C101.59 15.908 100.738 16.0397 99.9078 15.906C99.0771 15.7723 98.3098 15.3801 97.7149 14.7852C97.1199 14.1903 96.7277 13.4229 96.5941 12.5923C96.4604 11.7616 96.5921 10.91 96.9703 10.1584C97.3486 9.40691 97.9542 8.7938 98.701 8.4063C99.4478 8.0188 100.298 7.87665 101.13 8.00006C101.979 8.12594 102.765 8.52152 103.372 9.12836C103.979 9.73521 104.374 10.5211 104.5 11.3701Z" stroke="black" stroke-width="2" stroke-linecap="round" stroke-linejoin="round"/>
<path d="M106 6.5H106.01" stroke="black" stroke-width="2" stroke-linecap="round" stroke-linejoin="round"/>
<path d="M152.97 1.9999H136.03C135.84 1.99725 135.65 2.03214 135.474 2.10258C135.297 2.17302 135.135 2.27762 134.999 2.41041C134.862 2.5432 134.753 2.70158 134.678 2.87651C134.603 3.05143 134.563 3.23947 134.56 3.4299V20.5699C134.563 20.7603 134.603 20.9484 134.678 21.1233C134.753 21.2982 134.862 21.4566 134.999 21.5894C135.135 21.7222 135.297 21.8268 135.474 21.8972C135.65 21.9676 135.84 22.0025 136.03 21.9999H152.97C153.16 22.0025 153.349 21.9676 153.526 21.8972C153.703 21.8268 153.865 21.7222 154.001 21.5894C154.138 21.4566 154.247 21.2982 154.322 21.1233C154.397 20.9484 154.437 20.7603 154.44 20.5699V3.4299C154.437 3.23947 154.397 3.05143 154.322 2.87651C154.247 2.70158 154.138 2.5432 154.001 2.41041C153.865 2.27762 153.703 2.17302 153.526 2.10258C153.349 2.03214 153.16 1.99725 152.97 1.9999ZM140.59 18.7399H137.59V9.7399H140.59V18.7399ZM139.09 8.4799C138.676 8.4799 138.279 8.31554 137.987 8.02298C137.694 7.73043 137.53 7.33363 137.53 6.9199C137.53 6.50616 137.694 6.10937 137.987 5.81681C138.279 5.52425 138.676 5.3599 139.09 5.3599C139.31 5.33498 139.532 5.35675 139.743 5.42378C139.954 5.49081 140.148 5.60159 140.313 5.74886C140.478 5.89613 140.61 6.07657 140.7 6.27838C140.79 6.48018 140.837 6.69879 140.837 6.9199C140.837 7.141 140.79 7.35961 140.7 7.56141C140.61 7.76322 140.478 7.94366 140.313 8.09093C140.148 8.23821 139.954 8.34898 139.743 8.41601C139.532 8.48304 139.31 8.50481 139.09 8.4799ZM151.41 18.7399H148.41V13.9099C148.41 12.6999 147.98 11.9099 146.89 11.9099C146.553 11.9124 146.224 12.0182 145.949 12.2131C145.673 12.408 145.464 12.6826 145.35 12.9999C145.272 13.2349 145.238 13.4825 145.25 13.7299V18.7299H142.25C142.25 18.7299 142.25 10.5499 142.25 9.7299H145.25V10.9999C145.523 10.527 145.919 10.1374 146.396 9.8731C146.874 9.60878 147.415 9.47975 147.96 9.4999C149.96 9.4999 151.41 10.7899 151.41 13.5599V18.7399Z" fill="black"/>
<path d="M198.473 6.68079C198.472 6.32058 198.439 5.96119 198.375 5.60679C198.303 5.17355 198.166 4.75362 197.969 4.36113C197.753 3.94866 197.472 3.57372 197.137 3.25077C196.631 2.75525 196.006 2.39843 195.321 2.2147C194.693 2.0624 194.048 1.99354 193.401 2.00987L193.398 2H183.599L183.598 2.00989C183.231 2.007 182.863 2.02344 182.498 2.05914C182.097 2.10188 181.702 2.19073 181.322 2.32391C180.695 2.56035 180.132 2.94131 179.68 3.43586C179.228 3.93041 178.899 4.52461 178.719 5.17023C178.568 5.79342 178.499 6.43374 178.514 7.07483L178.508 16.913V16.9139C178.506 17.3594 178.537 17.8044 178.598 18.2456C178.665 18.7125 178.803 19.1663 179.008 19.5914C179.296 20.1586 179.706 20.655 180.209 21.0447C180.569 21.331 180.976 21.5516 181.412 21.6964C182.052 21.8943 182.718 21.9922 183.388 21.9869C183.808 21.9895 184.227 22 184.646 21.9982C187.693 21.9854 190.74 22.0202 193.787 21.9794C194.189 21.9706 194.59 21.928 194.985 21.852C195.733 21.7205 196.428 21.3821 196.993 20.8754C197.658 20.297 198.123 19.5224 198.319 18.6631C198.441 18.0877 198.499 17.5008 198.492 16.9129V16.7957C198.492 16.7502 198.475 6.81219 198.473 6.68079ZM195.797 15.9306C195.669 16.23 195.023 16.4782 193.929 16.6472C193.827 16.663 193.783 16.829 193.724 17.1007C193.7 17.2128 193.675 17.3228 193.641 17.4384C193.631 17.4871 193.603 17.5304 193.563 17.5602C193.523 17.59 193.474 17.6042 193.424 17.6002H193.407C193.303 17.5965 193.198 17.5833 193.096 17.5609C192.826 17.5044 192.551 17.4753 192.276 17.474C192.077 17.4745 191.88 17.4912 191.684 17.524C191.272 17.6285 190.888 17.8245 190.561 18.0975C190.009 18.5688 189.316 18.8422 188.591 18.8743C188.549 18.8743 188.509 18.8728 188.479 18.8713C188.455 18.8734 188.431 18.8743 188.406 18.8743C187.681 18.8424 186.988 18.5692 186.437 18.0981C186.11 17.8248 185.726 17.6285 185.313 17.5239C185.117 17.4911 184.919 17.4744 184.721 17.4739C184.445 17.4768 184.17 17.5079 183.901 17.5667C183.799 17.5905 183.694 17.6054 183.59 17.6113C183.537 17.6174 183.484 17.6036 183.441 17.5726C183.397 17.5416 183.367 17.4957 183.356 17.4438C183.321 17.3267 183.297 17.2132 183.273 17.1039C183.213 16.8308 183.17 16.6641 183.068 16.6483C181.974 16.4795 181.328 16.231 181.199 15.93C181.186 15.8999 181.178 15.8678 181.176 15.835C181.174 15.7917 181.188 15.7491 181.215 15.7153C181.242 15.6815 181.28 15.6589 181.323 15.6519C182.228 15.4881 183.043 15.0035 183.619 14.2871C183.936 13.9203 184.199 13.5106 184.401 13.0701L184.405 13.0617C184.465 12.9641 184.503 12.8548 184.516 12.7412C184.528 12.6277 184.516 12.5127 184.48 12.4043C184.339 12.072 183.873 11.9239 183.564 11.8259C183.487 11.8017 183.414 11.7787 183.357 11.7556C183.083 11.6475 182.633 11.4191 182.693 11.1038C182.739 10.985 182.821 10.8836 182.927 10.8136C183.033 10.7437 183.159 10.7088 183.286 10.7138C183.348 10.7124 183.409 10.7246 183.466 10.7497C183.696 10.8677 183.95 10.9346 184.208 10.9457C184.362 10.9566 184.514 10.9101 184.636 10.815C184.628 10.6691 184.619 10.5232 184.609 10.3774C184.469 9.39162 184.529 8.38763 184.786 7.4257C185.088 6.73525 185.588 6.14917 186.221 5.74063C186.854 5.33208 187.594 5.11917 188.348 5.12848L188.643 5.12573C189.397 5.11611 190.138 5.32898 190.773 5.73777C191.407 6.14657 191.908 6.7332 192.211 7.42444C192.468 8.38725 192.528 9.39209 192.387 10.3787L192.384 10.4264C192.376 10.5621 192.368 10.6905 192.361 10.8149C192.471 10.902 192.608 10.9479 192.749 10.9446C192.992 10.9263 193.23 10.8601 193.448 10.7498C193.52 10.7185 193.598 10.703 193.677 10.7044C193.767 10.704 193.855 10.721 193.938 10.7543L193.942 10.7559C194.036 10.7782 194.121 10.828 194.187 10.8989C194.252 10.9698 194.295 11.0586 194.309 11.1539C194.312 11.3067 194.199 11.5351 193.64 11.7557C193.583 11.7784 193.51 11.8015 193.433 11.826C193.124 11.9241 192.657 12.0721 192.517 12.4042C192.48 12.5125 192.468 12.6275 192.481 12.7411C192.494 12.8546 192.532 12.9639 192.591 13.0614L192.595 13.07C192.875 13.7084 193.298 14.2736 193.832 14.7215C194.366 15.1693 194.996 15.4877 195.674 15.6517C195.716 15.6588 195.755 15.6814 195.782 15.7152C195.809 15.749 195.823 15.7916 195.82 15.8348C195.818 15.8679 195.811 15.9003 195.797 15.9306Z" fill="black"/>
<path d="M242.5 5.79997C241.748 6.12606 240.953 6.34163 240.14 6.43997C240.998 5.92729 241.641 5.12075 241.95 4.16997C241.144 4.65003 240.261 4.98826 239.34 5.16997C238.725 4.50254 237.905 4.05826 237.01 3.90682C236.115 3.75537 235.195 3.90532 234.394 4.33315C233.593 4.76099 232.957 5.4425 232.585 6.2708C232.214 7.09911 232.127 8.02736 232.34 8.90997C230.709 8.82749 229.114 8.40292 227.659 7.66383C226.203 6.92474 224.919 5.88766 223.89 4.61997C223.529 5.25013 223.34 5.96379 223.34 6.68997C223.339 7.36435 223.504 8.02858 223.822 8.62353C224.139 9.21848 224.599 9.72568 225.16 10.1C224.508 10.0822 223.87 9.90726 223.3 9.58997V9.63997C223.305 10.5849 223.636 11.4991 224.237 12.2279C224.839 12.9568 225.673 13.4556 226.6 13.64C226.243 13.7485 225.873 13.8058 225.5 13.81C225.242 13.807 224.984 13.7835 224.73 13.74C224.994 14.5528 225.505 15.2631 226.191 15.7721C226.878 16.2811 227.706 16.5635 228.56 16.58C227.117 17.7152 225.336 18.3348 223.5 18.34C223.166 18.3411 222.832 18.321 222.5 18.28C224.374 19.4902 226.559 20.1327 228.79 20.13C230.33 20.146 231.857 19.855 233.283 19.274C234.709 18.6931 236.005 17.8338 237.095 16.7465C238.185 15.6591 239.048 14.3654 239.633 12.9409C240.217 11.5164 240.512 9.98969 240.5 8.44997C240.5 8.27996 240.5 8.09997 240.5 7.91997C241.285 7.33478 241.961 6.61739 242.5 5.79997Z" fill="black"/>
</svg>
