<svg width="72" height="72" viewBox="0 0 72 72" fill="none" xmlns="http://www.w3.org/2000/svg">
<path fill-rule="evenodd" clip-rule="evenodd" d="M12 15H21V12C21 8.68629 23.6863 6 27 6H45C48.3137 6 51 8.68629 51 12V15H60C61.6569 15 63 16.3431 63 18C63 19.6569 61.6569 21 60 21H57V60C57 63.3137 54.3137 66 51 66H21C17.6863 66 15 63.3137 15 60V21H12C10.3431 21 9 19.6569 9 18C9 16.3431 10.3431 15 12 15ZM21 21V60H51V21H21ZM45 15H27V12H45V15ZM27 27H33V54H27V27ZM45 27H39V54H45V27Z" fill="black"/>
</svg>
